Coordinates
version=1
nRows=32
nColumns=22
inDegrees=yes

Units are S.I. units (second, meters, Newtons, ...)
If the header above contains a line with 'inDegrees', this indicates whether rotational values are in degrees (yes) or radians (no).

endheader
time	pelvis_tilt	pelvis_list	pelvis_rotation	pelvis_tx	pelvis_ty	pelvis_tz	hip_flexion_r	hip_adduction_r	hip_rotation_r	knee_angle_r	ankle_angle_r	subtalar_angle_r	hip_flexion_l	hip_adduction_l	hip_rotation_l	knee_angle_l	ankle_angle_l	subtalar_angle_l	lumbar_extension	lumbar_bending	lumbar_rotation
      1.58000000	     -4.86670179	     -7.09269000	      5.35021059	     -1.02031670	      0.96619897	     -0.22031340	      5.77410757	      9.77816841	     -7.23815958	    -16.12275354	     14.42538309	     -0.38748861	     18.82308315	     -7.45362558	      9.69027255	    -33.19074840	     17.42589322	      4.74743158	     -1.09998854	      6.88045977	     -4.28997221
      1.59000000	     -4.80723717	     -6.92946711	      5.24391439	     -1.01738966	      0.96613079	     -0.21974515	      5.46516147	      9.67407275	     -7.09937886	    -16.07007804	     14.56255057	     -0.39080409	     19.38650658	     -7.19909736	      9.63096452	    -33.77573049	     17.45169427	      4.80482557	     -1.16584249	      6.72219827	     -4.12099233
      1.60000000	     -4.77096709	     -6.74857480	      5.12137659	     -1.01435736	      0.96606442	     -0.21918155	      5.17677708	      9.54737570	     -6.96284061	    -16.02382980	     14.68682650	     -0.39621217	     19.94545776	     -6.94358916	      9.51745586	    -34.19915869	     17.44343856	      4.85221528	     -1.20539566	      6.53610782	     -3.93512748
      1.61000000	     -4.73680448	     -6.56551532	      5.00588011	     -1.01123450	      0.96600547	     -0.21865019	      4.88907796	      9.41847837	     -6.81115478	    -15.98402626	     14.82156330	     -0.41156828	     20.49086312	     -6.69386466	      9.39775198	    -34.47809403	     17.37565526	      4.85362455	     -1.24093037	      6.34563357	     -3.76627243
      1.62000000	     -4.71338573	     -6.37694520	      4.88608437	     -1.00802558	      0.96593342	     -0.21814213	      4.61382333	      9.28076227	     -6.65632452	    -15.95507965	     14.95664803	     -0.43638508	     21.03287444	     -6.45051762	      9.25586324	    -34.62392579	     17.24061099	      4.80056780	     -1.26539988	      6.14580023	     -3.59471553
      1.63000000	     -4.69673527	     -6.18776326	      4.76635359	     -1.00473252	      0.96583787	     -0.21765125	      4.34944599	      9.14028355	     -6.50147390	    -15.94069746	     15.09392219	     -0.47129465	     21.57399332	     -6.21805850	      9.10019262	    -34.65361916	     17.02925546	      4.67731295	     -1.28432214	      5.94154124	     -3.42403850
      1.64000000	     -4.67696298	     -6.00811090	      4.65107014	     -1.00137625	      0.96570643	     -0.21718969	      4.09153808	      9.00788838	     -6.34647471	    -15.94866583	     15.24639950	     -0.52405303	     22.11733777	     -6.00333550	      8.93989864	    -34.59519910	     16.73043341	      4.38038661	     -1.31142738	      5.74669712	     -3.27168668
      1.65000000	     -4.66235433	     -5.82779566	      4.53960263	     -0.99794716	      0.96555754	     -0.21675925	      3.83797062	      8.87211195	     -6.19401804	    -15.95921074	     15.36698482	     -0.56310014	     22.65734711	     -5.78904046	      8.80485904	    -34.43939431	     16.33839749	      4.19565465	     -1.33805399	      5.54807296	     -3.10018651
      1.66000000	     -4.64111501	     -5.67084982	      4.43213484	     -0.99443083	      0.96535732	     -0.21636343	      3.58053720	      8.75777585	     -6.06683937	    -15.98103075	     15.52743857	     -0.62609277	     23.19344621	     -5.60651061	      8.66149545	    -34.20845223	     15.84426973	      3.62719060	     -1.37351639	      5.37637054	     -2.94444920
      1.67000000	     -4.62195380	     -5.50005723	      4.31120114	     -0.99086340	      0.96511513	     -0.21599097	      3.34210898	      8.62275806	     -5.93135790	    -16.04416949	     15.71050363	     -0.67330694	     23.73073055	     -5.41967303	      8.50489907	    -33.91753383	     15.28477635	      3.26249444	     -1.41738031	      5.18793405	     -2.77102844
      1.68000000	     -4.59573217	     -5.34834313	      4.20322366	     -0.98725009	      0.96485004	     -0.21568429	      3.09144310	      8.50546720	     -5.79862685	    -16.09637731	     15.84246328	     -0.70738756	     24.25997214	     -5.23863467	      8.41084209	    -33.56388589	     14.61630322	      2.70606087	     -1.47772580	      5.02331629	     -2.60828875
      1.69000000	     -4.57165306	     -5.17872331	      4.07444758	     -0.98359479	      0.96453202	     -0.21540818	      2.86460728	      8.36081479	     -5.66725717	    -16.20036175	     16.03967741	     -0.73986854	     24.78476754	     -5.04686732	      8.30896548	    -33.16015133	     13.89832069	      2.32362355	     -1.54843411	      4.83817260	     -2.40596996
      1.70000000	     -4.54010754	     -5.03471427	      3.95509669	     -0.97986051	      0.96419679	     -0.21519706	      2.61510914	      8.24016904	     -5.54138056	    -16.28014001	     16.20140598	     -0.74732964	     25.28759038	     -4.87670431	      8.24052306	    -32.68430013	     13.08796641	      1.70929129	     -1.62975751	      4.68618097	     -2.24488046
      1.71000000	     -4.51191256	     -4.88190558	      3.83017238	     -0.97607719	      0.96382343	     -0.21504839	      2.36998451	      8.10214308	     -5.41901839	    -16.36910323	     16.37000331	     -0.74317183	     25.78085293	     -4.69171576	      8.21005568	    -32.15979438	     12.24601264	      1.22840820	     -1.71571127	      4.52385125	     -2.05563845
      1.72000000	     -4.49202866	     -4.71011920	      3.69488458	     -0.97224258	      0.96340938	     -0.21496714	      2.14399933	      7.93408094	     -5.30414047	    -16.48915436	     16.56508006	     -0.74720283	     26.25577463	     -4.48448418	      8.21111641	    -31.57242617	     11.39971195	      0.93408296	     -1.80071176	      4.34275463	     -1.84444591
      1.73000000	     -4.45056252	     -4.57254215	      3.56591394	     -0.96834007	      0.96298613	     -0.21494722	      1.88070543	      7.80081809	     -5.17512698	    -16.58655575	     16.75641960	     -0.70649029	     26.69513236	     -4.31367714	      8.23934159	    -30.93455623	     10.51376891	      0.39717495	     -1.91396399	      4.20570762	     -1.68342733
      1.74000000	     -4.42354778	     -4.42276074	      3.43948626	     -0.96437190	      0.96252360	     -0.21499591	      1.62574814	      7.64629573	     -5.05923604	    -16.68040033	     16.94258111	     -0.67392567	     27.12068196	     -4.12502716	      8.31511434	    -30.24141554	      9.66897819	      0.08760536	     -2.01522479	      4.05155393	     -1.50706587
      1.75000000	     -4.40906963	     -4.27106457	      3.31977568	     -0.96032076	      0.96201741	     -0.21512092	      1.36996678	      7.48164394	     -4.96593061	    -16.75832675	     17.11831056	     -0.65715444	     27.53366864	     -3.93168369	      8.43274957	    -29.50134775	      8.88334624	     -0.05903187	     -2.10287607	      3.89469907	     -1.32788890
      1.76000000	     -4.38248552	     -4.13145996	      3.19978368	     -0.95618003	      0.96149860	     -0.21528899	      1.09385037	      7.32701658	     -4.85991950	    -16.83373211	     17.30798356	     -0.62115684	     27.90142678	     -3.76074036	      8.56916487	    -28.70824132	      8.15087205	     -0.23952817	     -2.20506214	      3.75098428	     -1.17461880
      1.77000000	     -4.34277654	     -4.01818094	      3.08568883	     -0.95194070	      0.96096096	     -0.21549783	      0.78412016	      7.20011921	     -4.73523701	    -16.88379736	     17.49507223	     -0.54715933	     28.23290722	     -3.62552408	      8.72901851	    -27.88275485	      7.50034865	     -0.46247140	     -2.32097554	      3.63594155	     -1.05173059
      1.78000000	     -4.34535831	     -3.92353281	      2.98768482	     -0.94761437	      0.96033665	     -0.21574952	      0.51041775	      7.08798595	     -4.63978093	    -16.92296794	     17.63834165	     -0.53991685	     28.59264989	     -3.51150174	      8.91627840	    -27.03686982	      6.95791738	     -0.44170774	     -2.38403972	      3.53367438	     -0.95360421
      1.79000000	     -4.31110556	     -3.81294135	      2.87424017	     -0.94314038	      0.95972419	     -0.21603334	      0.19416915	      6.95195026	     -4.55714521	    -16.97943398	     17.83470296	     -0.50256087	     28.86358097	     -3.40661000	      9.08745419	    -26.14542169	      6.54532489	     -0.47633948	     -2.48601509	      3.41151797	     -0.82341338
      1.80000000	     -4.29020043	     -3.74193335	      2.76906177	     -0.93855930	      0.95905564	     -0.21631459	     -0.12563613	      6.86153431	     -4.45715629	    -17.01164713	     17.99411621	     -0.46235749	     29.13681933	     -3.35683322	      9.25414833	    -25.25203881	      6.23589963	     -0.48157690	     -2.56663679	      3.32430578	     -0.73514004
      1.81000000	     -4.26841126	     -3.69328022	      2.66023138	     -0.93384946	      0.95834444	     -0.21660764	     -0.45263091	      6.79229717	     -4.35669081	    -17.04617387	     18.14847054	     -0.41731738	     29.38900470	     -3.35016983	      9.39219945	    -24.35986454	      6.05010677	     -0.47742503	     -2.64184491	      3.25552712	     -0.65537896
      1.82000000	     -4.29341113	     -3.70763162	      2.56216787	     -0.92906411	      0.95750510	     -0.21691830	     -0.72515306	      6.78862005	     -4.25943492	    -17.09155615	     18.28339715	     -0.41257297	     29.69798494	     -3.40949276	      9.54311749	    -23.50641146	      5.98600723	     -0.45420705	     -2.65857159	      3.25063946	     -0.59781818
      1.83000000	     -4.24635682	     -3.66770578	      2.42036330	     -0.92405544	      0.95676690	     -0.21720218	     -1.09666111	      6.72420100	     -4.13331494	    -17.12967050	     18.42078189	     -0.33511422	     29.87082362	     -3.46822379	      9.54702993	    -22.62813947	      5.98023378	     -0.46390056	     -2.74874804	      3.17747241	     -0.50843142
      1.84000000	     -4.25075667	     -3.69781125	      2.28566465	     -0.91897212	      0.95589619	     -0.21750381	     -1.40706248	      6.73200621	     -3.99697758	    -17.18080771	     18.54160401	     -0.27173377	     30.11145794	     -3.59529415	      9.56039667	    -21.81408695	      6.06145996	     -0.48567808	     -2.77599202	      3.17580560	     -0.43738310
      1.85000000	     -4.28311038	     -3.75313318	      2.16704761	     -0.91379085	      0.95493182	     -0.21788529	     -1.66198022	      6.75546939	     -3.91365161	    -17.28600040	     18.66023155	     -0.25001530	     30.37426418	     -3.73757977	      9.58402220	    -21.04690543	      6.22194569	     -0.50365393	     -2.76618413	      3.20142851	     -0.39798801
      1.86000000	     -4.27563572	     -3.81137168	      1.96091032	     -0.90842055	      0.95403076	     -0.21816635	     -1.98501613	      6.78325252	     -3.68849846	    -17.37027293	     18.76382524	     -0.12857744	     30.56215969	     -3.94499064	      9.43490122	    -20.32401826	      6.40077154	     -0.57999353	     -2.79644919	      3.22038935	     -0.26554902
      1.87000000	     -4.29134655	     -3.88293382	      1.77546425	     -0.90294372	      0.95306317	     -0.21855172	     -2.25865600	      6.81188566	     -3.50847084	    -17.50863236	     18.86309797	      0.00414110	     30.75746379	     -4.14460488	      9.32333741	    -19.65501127	      6.60479473	     -0.66909465	     -2.79555578	      3.25503980	     -0.17808559
      1.88000000	     -4.32084564	     -3.97048726	      1.57073572	     -0.89733146	      0.95206571	     -0.21899877	     -2.51547794	      6.84692657	     -3.30316792	    -17.66473649	     18.95492306	      0.13704956	     30.94730659	     -4.35990829	      9.18993554	    -19.05552875	      6.81415719	     -0.75649548	     -2.77317982	      3.30997753	     -0.06802416
      1.89000000	     -4.35383065	     -4.06121675	      1.35238727	     -0.89158124	      0.95105940	     -0.21949866	     -2.75746842	      6.87527367	     -3.08100396	    -17.85568871	     19.03383773	      0.29072404	     31.11069530	     -4.57485406	      9.05466819	    -18.52174362	      7.02464758	     -0.84489647	     -2.74197433	      3.36664811	      0.04244928
